# xmcd
#
# Track frame offsets:
#	150
#	11695
#	24926
#	37309
#	52453
#	66831
#	80008
#	93646
#	106553
#	121359
#
# Disc length: 1792
#
# Revision: 2
# Processed by: cddbd v1.5.1PL0 Copyright (c) Steve Scherf et al.
# Submitted via: audiograbber 1.82.02
# Normalized: r1:DSETVAR1
#
DISCID=8606fe0a
DTITLE=Various Artist - Blues Suite: Blues Hits Disc 3
DYEAR=2000
DGENRE=Blues
TTITLE0=Rosetta Tharpe and Lucky Millinder - Trouble in Mind
TTITLE1=Big Maceo - Worried Life Blues
TTITLE2=Eddie Vinson and Cootie Williams - When My Baby Left Me
TTITLE3=Hot Lips Page - Uncle Sam Blues
TTITLE4=Leadbelly - Roberta
TTITLE5=Sonny Terry and Brownie McGhee - Shake Down Blues
TTITLE6=Roy Milton - R M Blues
TTITLE7=Wynonie Harris - Wynonie's Blues
TTITLE8=Charles Brown and J. Moore Three Blaze - Drifting Blues
TTITLE9=Dinah Washington - Rich Man's Blues
EXTD=Columbia River Entertainment Group, 14134 NE Airport Way, Portland, OR 97230-3443, (800) 288-2007, www.allegro-music.com\n
EXTT0=
EXTT1=
EXTT2=
EXTT3=
EXTT4=
EXTT5=
EXTT6=
EXTT7=
EXTT8=
EXTT9=
PLAYORDER=
